<svg width="130" height="73" viewBox="0 0 130 73" fill="none" xmlns="http://www.w3.org/2000/svg">
<path d="M20.7207 57.2655H32.5527C32.8645 57.2655 33.1753 57.2239 33.4729 57.1327C35.6869 56.4594 36.4741 54.8889 36.4741 54.8889L38.8912 51.4883C38.9339 51.4275 38.9248 51.3434 38.8709 51.2917C35.3284 47.9286 34.6612 44.5949 34.6612 44.5949C33.8913 42.5783 33.938 39.0946 33.9695 38.0868C33.9716 38.0057 33.8659 37.9712 33.8202 38.0381L20.6242 57.0799C20.5694 57.159 20.6262 57.2655 20.7217 57.2655H20.7207Z" fill="white"/>
<path d="M2.21923 57.1459L27.9288 20.1105C27.9521 20.0771 27.9999 20.072 28.0293 20.1004C28.6356 20.7026 33.8803 26.2922 30.3531 36.1107C30.3531 36.1107 29.3334 38.7123 28.0862 40.4096C28.0862 40.4096 24.3609 46.1563 16.4603 57.2006C16.4309 57.2412 16.3831 57.2665 16.3334 57.2665H2.28321C2.22126 57.2665 2.18469 57.1976 2.22024 57.1469H2.21923V57.1459Z" fill="white"/>
<path d="M8.22446 16.718C8.11376 16.7453 8.0386 16.8508 8.04977 16.9633L8.45907 20.9844C8.46313 21.0371 8.38899 21.0544 8.3697 21.0057L6.95696 17.4804C6.92446 17.3993 6.83102 17.3608 6.74977 17.3952L2.56134 19.279C2.4547 19.3277 2.41102 19.4555 2.46587 19.5589L5.25274 24.7409L3.27837 41.1253C3.27431 41.1648 3.30579 41.1993 3.3454 41.1973L5.87735 41.0878H7.17227C7.67399 41.0878 8.17368 41.0199 8.65306 40.8749C9.12024 40.7339 9.66056 40.5028 10.1105 40.1256C10.2242 40.0303 10.3227 39.9208 10.4111 39.8012C10.7625 39.3257 11.8482 37.8332 12.6912 36.4391C12.8943 36.1045 13.1249 35.7882 13.3798 35.4911C13.9831 34.7895 15.1876 33.1561 15.8488 30.6782C15.8488 30.6782 16.642 28.0766 16.0752 25.701C16.0752 25.701 16.8684 25.8146 17.1945 29.6785C17.1975 29.7241 17.2341 29.7647 17.2798 29.7708C17.3681 29.7829 17.4545 29.7444 17.5042 29.6734L25.2524 18.401C25.3154 18.3087 25.291 18.182 25.1956 18.1202C25.1956 18.1202 20.0971 13.8689 8.22446 16.7159V16.718Z" fill="white"/>
<path d="M48.3539 20.7919H52.7607L56.286 33.4705H53.6799L52.9517 30.6813H48.161L47.4328 33.4705H44.8267L48.3519 20.7919H48.3539ZM52.3585 28.4721L50.7295 22.2955H50.3842L48.7551 28.4721H52.3585Z" fill="white"/>
<path d="M57.6277 30.7908L59.8499 30.2473C60.0987 31.5157 60.9996 31.9142 62.1107 31.9142C63.2218 31.9142 63.7591 31.4975 63.7591 30.9358C63.7591 30.3741 63.2797 30.1206 62.1493 29.9219L61.613 29.8317C59.6204 29.4879 57.972 28.7813 57.972 27.0059C57.972 25.2306 59.467 24.235 61.7278 24.235C63.8545 24.235 65.3109 25.2134 65.7517 26.6622L63.5102 27.3142C63.299 26.3905 62.648 26.0458 61.7278 26.0458C60.8076 26.0458 60.31 26.3723 60.31 26.8975C60.31 27.4774 60.8462 27.7126 61.7278 27.8576L62.2641 27.9478C64.4101 28.3098 66.096 28.8897 66.096 30.7736C66.096 32.6574 64.5248 33.726 62.1107 33.726C59.6965 33.726 57.9527 32.6756 57.6267 30.7918H57.6277V30.7908Z" fill="white"/>
<path d="M66.9775 24.4875H69.545L71.749 31.8048H72.0943L74.2982 24.4875H76.8657L73.8381 33.4716H70.0061L66.9786 24.4875H66.9775Z" fill="white"/>
<path d="M77.8608 30.8455C77.8608 28.9982 79.3934 28.0381 81.5394 28.0381H84.1455V27.5311C84.1455 26.6977 83.6093 26.0823 82.3824 26.0823C81.1555 26.0823 80.6386 26.6622 80.4659 27.4774L78.2437 26.7707C78.7038 25.4121 79.949 24.235 82.421 24.235C84.893 24.235 86.4835 25.4486 86.4835 27.6944V31.0453C86.4835 31.4072 86.6754 31.5887 87.0197 31.5887H87.7865V33.4725H86.1768C85.2373 33.4725 84.5477 33.0011 84.5477 32.2772V32.2589H84.1841C84.0115 32.7121 83.4173 33.726 81.4247 33.726C79.432 33.726 77.8608 32.6939 77.8608 30.8455ZM84.1455 29.9219V29.7404H81.7121C80.8112 29.7404 80.275 30.1206 80.275 30.7725C80.275 31.4245 80.8112 31.8777 81.8462 31.8777C83.1878 31.8777 84.1455 31.1173 84.1455 29.9219Z" fill="white"/>
<path d="M44.8276 43.5171H47.4337L50.2694 54.6567H50.5375L53.3731 43.5171H55.9792L52.5687 56.1958H48.2381L44.8276 43.5171Z" fill="white"/>
<path d="M56.8221 51.8127V51.5957C56.8221 48.77 58.7385 46.9592 61.5742 46.9592C64.4098 46.9592 66.1922 48.843 66.1922 51.5957V52.3744H59.2748C59.3327 53.6063 60.3473 54.4569 61.6889 54.4569C63.0306 54.4569 63.5861 53.805 63.9111 53.1166L65.8845 54.095C65.3482 55.0551 64.2178 56.4492 61.6118 56.4492C58.7568 56.4492 56.821 54.6374 56.821 51.8127H56.8221ZM63.7395 50.6721C63.6247 49.64 62.801 48.9515 61.5549 48.9515C60.3087 48.9515 59.4668 49.64 59.2941 50.6721H63.7395Z" fill="white"/>
<path d="M68.5303 47.2118H70.9058V48.3889H71.2511C71.5578 47.7735 72.3236 47.0668 74.0299 47.0668C76.2521 47.0668 77.7278 48.6059 77.7278 50.8344V56.1958H75.3136V51.0159C75.3136 49.6573 74.5854 48.9871 73.2824 48.9871C71.8067 48.9871 70.9444 49.9655 70.9444 51.6313V56.1958H68.5303V47.2118Z" fill="white"/>
<path d="M81.7894 54.167V49.0955H79.4138V47.2117H81.7894V44.4225H84.2035V47.2117H86.8096V49.0955H84.2035V53.7685C84.2035 54.1305 84.3955 54.312 84.7398 54.312H86.5791V56.1958H83.8968C82.6323 56.1958 81.7894 55.3988 81.7894 54.167Z" fill="white"/>
<path d="M89.1089 52.5731V47.2117H91.523V52.3916C91.523 53.7502 92.2512 54.4204 93.5543 54.4204C95.03 54.4204 95.8922 53.442 95.8922 51.7762V47.2117H98.3064V56.1957H95.9308V55.0186H95.5855C95.2788 55.634 94.512 56.3407 92.8068 56.3407C90.5846 56.3407 89.1089 54.8006 89.1089 52.5731Z" fill="white"/>
<path d="M101.181 47.2117H103.556V48.2256H103.902C104.17 47.5006 104.859 47.1752 105.741 47.1752H106.891V49.204H105.702C104.476 49.204 103.595 49.8194 103.595 51.0878V56.1957H101.181V47.2117Z" fill="white"/>
<path d="M108.155 51.8127V51.5957C108.155 48.77 110.071 46.9592 112.907 46.9592C115.743 46.9592 117.525 48.843 117.525 51.5957V52.3744H110.608C110.665 53.6063 111.68 54.4569 113.022 54.4569C114.363 54.4569 114.919 53.805 115.244 53.1166L117.217 54.095C116.681 55.0551 115.551 56.4492 112.944 56.4492C110.09 56.4492 108.155 54.6374 108.155 51.8127ZM115.072 50.6721C114.957 49.64 114.134 48.9515 112.888 48.9515C111.641 48.9515 110.799 49.64 110.627 50.6721H115.072Z" fill="white"/>
<path d="M119.326 53.515L121.548 52.9716C121.797 54.24 122.698 54.6384 123.809 54.6384C124.92 54.6384 125.456 54.2217 125.456 53.66C125.456 53.0983 124.977 52.8449 123.846 52.6461L123.31 52.5559C121.317 52.2122 119.669 51.5055 119.669 49.7302C119.669 47.9549 121.164 46.9592 123.425 46.9592C125.552 46.9592 127.008 47.9376 127.449 49.3865L125.207 50.0384C124.996 49.1148 124.345 48.771 123.426 48.771C122.507 48.771 122.008 49.0965 122.008 49.6227C122.008 50.2027 122.544 50.4379 123.426 50.5829L123.962 50.6731C126.108 51.0351 127.794 51.615 127.794 53.4988C127.794 55.3826 126.223 56.4513 123.809 56.4513C121.395 56.4513 119.651 55.4009 119.325 53.5171V53.515H119.326Z" fill="white"/>
</svg>
