<svg width="70" height="42" viewBox="0 0 70 42" fill="none" xmlns="http://www.w3.org/2000/svg">
<g id="Group 628016">
<g id="Intersect">
<path d="M34.4752 36.1663H35.5248C35.9305 35.7777 36.3207 35.3729 36.6943 34.953H33.3057C33.6793 35.3729 34.0695 35.7777 34.4752 36.1663Z" fill="white"/>
<path d="M32.3046 33.7397H37.6954C37.9963 33.346 38.2836 32.9413 38.5565 32.5263H31.4435C31.7164 32.9413 32.0037 33.346 32.3046 33.7397Z" fill="white"/>
<path d="M30.7028 31.313H39.2972C39.5212 30.9164 39.7328 30.5118 39.9312 30.0997H30.0688C30.2672 30.5118 30.4788 30.9164 30.7028 31.313Z" fill="white"/>
<path d="M29.5313 28.8863H40.4687C40.6303 28.4878 40.78 28.0832 40.9174 27.673H29.0826C29.22 28.0832 29.3697 28.4878 29.5313 28.8863Z" fill="white"/>
<path d="M28.7168 26.4597H41.2832C41.3905 26.0598 41.4864 25.6552 41.5704 25.2463H28.4296C28.5136 25.6552 28.6095 26.0598 28.7168 26.4597Z" fill="white"/>
<path d="M28.2175 24.033H41.7825C41.8405 23.6321 41.8872 23.2276 41.9222 22.8197H28.0778C28.1128 23.2276 28.1595 23.6321 28.2175 24.033Z" fill="white"/>
<path d="M28.0086 21.6063H41.9914C41.9971 21.4048 42 21.2025 42 20.9995C42 20.7967 41.9971 20.5945 41.9914 20.393H28.0086C28.0029 20.5945 28 20.7967 28 20.9995C28 21.2025 28.0029 21.4048 28.0086 21.6063Z" fill="white"/>
<path d="M28.0778 19.1797H41.9222C41.8872 18.7718 41.8406 18.3672 41.7826 17.9663H28.2174C28.1594 18.3672 28.1128 18.7718 28.0778 19.1797Z" fill="white"/>
<path d="M28.4296 16.753H41.5704C41.4865 16.3441 41.3906 15.9395 41.2832 15.5397H28.7168C28.6094 15.9395 28.5136 16.3441 28.4296 16.753Z" fill="white"/>
<path d="M29.0825 14.3263H40.9175C40.7801 13.9161 40.6304 13.5115 40.4688 13.113H29.5312C29.3696 13.5115 29.2199 13.9161 29.0825 14.3263Z" fill="white"/>
<path d="M30.0687 11.8997H39.9313C39.7329 11.4876 39.5214 11.083 39.2974 10.6863H30.7026C30.4786 11.083 30.2671 11.4876 30.0687 11.8997Z" fill="white"/>
<path d="M31.4433 9.47301H38.5567C38.2837 9.05807 37.9965 8.6534 37.6956 8.25967H32.3044C32.0035 8.6534 31.7163 9.05807 31.4433 9.47301Z" fill="white"/>
<path d="M33.3055 7.04634H36.6945C36.3209 6.62646 35.9308 6.22168 35.5251 5.83301H34.4749C34.0692 6.22168 33.6791 6.62646 33.3055 7.04634Z" fill="white"/>
</g>
<g id="Ellipses">
<path id="Ellipse 68" d="M69.4167 21C69.4167 32.2758 60.2758 41.4167 49 41.4167C37.7242 41.4167 28.5833 32.2758 28.5833 21C28.5833 9.72419 37.7242 0.583333 49 0.583333C60.2758 0.583333 69.4167 9.72419 69.4167 21Z" stroke="url(#paint0_linear_97_1527)" stroke-width="1.16667"/>
<circle id="Ellipse 65" cx="21" cy="21" r="20.4167" stroke="url(#paint1_linear_97_1527)" stroke-width="1.16667"/>
</g>
</g>
<defs>
<linearGradient id="paint0_linear_97_1527" x1="37.9167" y1="4.08333" x2="58.3333" y2="43.1667" gradientUnits="userSpaceOnUse">
<stop stop-color="white"/>
<stop offset="1" stop-color="#272727"/>
</linearGradient>
<linearGradient id="paint1_linear_97_1527" x1="9.91667" y1="1.75" x2="33.8333" y2="49.5833" gradientUnits="userSpaceOnUse">
<stop stop-color="white"/>
<stop offset="1" stop-color="#272727"/>
</linearGradient>
</defs>
</svg>
